# xmcd
#
# Track frame offsets: 
#        150
#        31878
#        59302
#        88104
#        109000
#        126434
#
# Disc length: 2118 seconds
#
# Revision: 1
# Processed by: cddbd v1.5.2PL0 Copyright (c) Steve Scherf et al.
# Submitted via: ExactAudioCopy v0.99pb3
#
DISCID=4b084406
DTITLE=Michael Kramer and Benjamin Kramer - a day for JAZZ
DYEAR=2004
DGENRE=Jazz
TTITLE0=Reflections
TTITLE1=You Made Me Love You
TTITLE2=Marshmallow Dreams
TTITLE3=Sugar Blues
TTITLE4=Ladyfingers
TTITLE5=They Didn't Believe Me
EXTD=YEAR: 2004
EXTT0=
EXTT1=
EXTT2=
EXTT3=
EXTT4=
EXTT5=
PLAYORDER=
